<?xml version="1.0" encoding="utf-8"?>
<!-- Generator: Adobe Illustrator 25.2.0, SVG Export Plug-In . SVG Version: 6.00 Build 0)  -->
<svg version="1.1" id="Layer_1" xmlns="http://www.w3.org/2000/svg" xmlns:xlink="http://www.w3.org/1999/xlink" x="0px" y="0px"
	 viewBox="0 0 1280 720" style="enable-background:new 0 0 1280 720;" xml:space="preserve">
<style type="text/css">
	.st0{fill:#8BC249;}
	.st1{fill:#FFFFFF;stroke:#000000;stroke-miterlimit:10;}
	.st2{fill:#57C5C8;}
	.st3{fill:#FFFFFF;}
	.st4{fill:#FAAF1B;}
	.st5{fill:#FCD4C6;}
	.st6{fill:none;stroke:#E6E7E7;stroke-width:2;stroke-miterlimit:10;}
	.st7{fill:#010101;stroke:#010101;stroke-miterlimit:10;}
	.st8{fill:#FDB51F;}
	.st9{fill:#F9AF1D;}
	.st10{fill:#EE302D;}
	.st11{fill:#472412;}
	.st12{fill:#020202;stroke:#020202;stroke-miterlimit:10;}
	.st13{fill:#E42327;}
	.st14{fill:#FFF3D6;}
	.st15{fill:none;stroke:#C3996C;stroke-width:0.5;stroke-miterlimit:10;}
	.st16{opacity:0.3;fill:#A8AAAD;enable-background:new    ;}
	.st17{fill:#39B54A;}
	.st18{fill:none;stroke:#6D6E71;stroke-width:8;stroke-miterlimit:10;}
</style>
<circle class="st0" cx="640" cy="360" r="247.48"/>
<path class="st1" d="M874.08,303.74H568.2c-15.25,0-27.73-12.48-27.73-27.73v-43.7c0-15.25,12.48-27.73,27.73-27.73h305.88
	c15.25,0,27.73,12.48,27.73,27.73v43.7C901.82,291.26,889.34,303.74,874.08,303.74z"/>
<path class="st1" d="M832.91,426.85H527.03c-15.25,0-27.73-12.48-27.73-27.73v-43.7c0-15.25,12.48-27.73,27.73-27.73h305.88
	c15.25,0,27.73,12.48,27.73,27.73v43.7C860.64,414.37,848.16,426.85,832.91,426.85z"/>
<g>
	<path class="st2" d="M588.42,377.24c0,16.84-12.75,27.68-13.67,28.41c-9.5,7.62-19.89,7.95-22.69,7.95
		c-2.88,0-12.86-0.35-22.16-7.53c-0.8-0.62-14.51-11.57-14.2-28.83c0.32-17.52,14.99-36.36,36.36-36.36
		C572.14,340.88,588.42,357.16,588.42,377.24z"/>
	<g id="shirt_1_">
		<path class="st3" d="M574.75,405.65c-2.33,1.83-6.15,4.38-11.38,6.11c-9.49,3.14-17.44,1.52-19.2,1.13
			c-6.45-1.43-11.11-4.4-13.81-6.47c0.92-1.64,1.83-3.27,2.75-4.91l0.01-0.01c0.54-0.75,1.4-1.38,2.47-1.78l0.4-0.14l10.82-3.82
			v-3.42h11.45v3.42l10.82,3.82l0.4,0.14c1.07,0.41,1.93,1.03,2.47,1.78l0.01,0.01C572.88,402.89,573.81,404.27,574.75,405.65z"/>
		<circle class="st4" cx="552.52" cy="400.85" r="2.01"/>
		<circle class="st4" cx="552.52" cy="408.61" r="2.01"/>
	</g>
	<g>
		<ellipse class="st5" cx="538.62" cy="378.32" rx="1.41" ry="3.39"/>
		<g>
			<g id="skin_1_">
				<ellipse class="st5" cx="552.52" cy="379.08" rx="13.9" ry="16.56"/>
			</g>
			<ellipse class="st5" cx="566.43" cy="378.32" rx="1.41" ry="3.39"/>
		</g>
	</g>
	<g id="hat_1_">
		<g>
			<ellipse class="st3" cx="559.83" cy="355.41" rx="8.56" ry="8.32"/>
		</g>
		<g>
			<polygon class="st3" points="541.59,368.84 541.89,368.84 552.52,368.84 552.52,351.58 541.59,362.81 			"/>
			<polygon class="st3" points="562.99,368.84 562.69,368.84 552.06,368.84 552.06,351.58 562.99,362.81 			"/>
			<ellipse class="st3" cx="544.55" cy="355.09" rx="8.56" ry="8.32"/>
			<ellipse class="st3" cx="553.11" cy="352.27" rx="8.56" ry="8.32"/>
			<line class="st6" x1="553.11" y1="355.09" x2="553.11" y2="366.75"/>
			<line class="st6" x1="548.33" y1="355.41" x2="548.33" y2="366.75"/>
			<line class="st6" x1="557.52" y1="355.09" x2="557.52" y2="366.75"/>
		</g>
	</g>
	<path class="st7" d="M550.77,371.73"/>
	<g id="eye1_1_">
		<path class="st7" d="M549.37,374.92c0,1.28-1.04,2.32-2.32,2.32c-1.28,0-2.32-1.04-2.32-2.32c0-1.22,1.01-2.09,1.88-2.28
			c0.2-0.04,0.36-0.04,0.43-0.04C548,372.64,549.37,373.47,549.37,374.92z"/>
		<path class="st5" d="M546.16,374.42c-0.39,0.36-0.95,0.41-2.07,0.49c-0.47,0.04-0.53,0-0.56-0.05c-0.42-0.53,1.83-3.78,2.7-3.44
			C546.81,371.65,547.01,373.63,546.16,374.42z"/>
	</g>
	<path class="st7" d="M549.63,371.31"/>
	<g id="eye2_1_">
		<path class="st7" d="M559.88,375.21c0,1.28-1.04,2.32-2.32,2.32c-1.28,0-2.32-1.04-2.32-2.32c0-1.22,1.01-2.09,1.88-2.28
			c0.2-0.04,0.36-0.04,0.43-0.04C558.51,372.93,559.88,373.75,559.88,375.21z"/>
		<path class="st5" d="M556.84,374.68c-0.38,0.36-0.94,0.4-2.04,0.48c-0.46,0.04-0.52,0-0.55-0.04c-0.41-0.52,1.8-3.72,2.66-3.39
			C557.49,371.95,557.68,373.9,556.84,374.68z"/>
	</g>
	<path class="st3" d="M556.32,385.69c0,1.05-1.7,1.9-3.8,1.9s-3.8-0.85-3.8-1.9s1.7-1.9,3.8-1.9S556.32,384.64,556.32,385.69z"/>
	<g id="moustache_1_">
		<path class="st7" d="M553.67,383.68c-0.09-0.73-4.57-1.65-7.36,0.66c-0.26,0.21-1.42,1.18-1.2,1.61
			C545.63,386.99,553.79,384.69,553.67,383.68z"/>
		<path class="st7" d="M551.36,383.68c0.09-0.73,4.57-1.65,7.36,0.66c0.26,0.21,1.42,1.18,1.2,1.61
			C559.4,386.99,551.23,384.69,551.36,383.68z"/>
	</g>
	<path class="st3" d="M574.08,411.42"/>
</g>
<g>
	<circle class="st8" cx="594.91" cy="251.96" r="36.02"/>
	<g id="shirt_2_">
		<path class="st3" d="M617.53,280c-2.27,1.82-6.01,4.38-11.18,6.12c-3.37,1.13-10.49,2.96-19.14,1.06
			c-6.4-1.4-11.04-4.28-13.72-6.27c0.44-0.85,0.91-1.71,1.38-2.59c0.45-0.83,0.91-1.64,1.36-2.43l0.01-0.01
			c0.53-0.75,1.39-1.37,2.45-1.77l0.39-0.14l10.73-3.79v-3.39h11.36v3.39l10.73,3.79l0.39,0.14c1.06,0.4,1.92,1.02,2.45,1.77
			l0.01,0.01c0.32,0.47,1.08,1.58,1.39,2.05C616.46,278.41,617.21,279.53,617.53,280z"/>
		<path class="st9" d="M574.18,281.42"/>
		<path class="st10" d="M588.57,287.45c1.13-5.54,2.27-11.08,3.4-16.62c3.07-0.21,6.13-0.43,9.2-0.64c0.28,0.1,0.57,0.2,0.85,0.3
			c-3.13,0.24-6.26,0.48-9.38,0.72c-0.92,5.49-1.83,10.97-2.75,16.46c-0.23-0.04-0.45-0.07-0.68-0.1
			C588.99,287.52,588.78,287.49,588.57,287.45z"/>
	</g>
	<polygon class="st10" points="589.81,270.19 591.97,270.83 591.9,271.18 589.39,270.34 	"/>
	<circle class="st10" cx="594.16" cy="273.88" r="0.74"/>
	<circle class="st10" cx="597.77" cy="273.88" r="0.74"/>
	<circle class="st10" cx="597.21" cy="279.98" r="0.74"/>
	<circle class="st10" cx="596.68" cy="286.08" r="0.74"/>
	<circle class="st10" cx="592.42" cy="286.08" r="0.74"/>
	<circle class="st10" cx="593.42" cy="279.98" r="0.74"/>
	<path class="st11" d="M594.91,235.68c-1.49-0.12-4.73-0.16-7.87,1.78c-1.68,1.03-3.09,2.49-4.48,4.85
		c-6,10.22-3.62,23.94-1.47,24.3c0.26,0.04,0.84-0.06,2.23,0.02c0.52,0.03,0.76,0.06,1.46,0.13c0.61,0.06,1.48,0.13,2.56,0.19
		c0.41-0.05,0.82-0.1,1.23-0.15L594.91,235.68z"/>
	<path class="st11" d="M594.53,235.68c1.49-0.12,4.73-0.16,7.87,1.78c1.68,1.03,3.09,2.49,4.48,4.85c6,10.22,3.62,23.94,1.47,24.3
		c-0.26,0.04-0.84-0.06-2.23,0.02c-0.52,0.03-0.76,0.06-1.46,0.13c-0.61,0.06-1.48,0.13-2.56,0.19c-0.41-0.05-0.82-0.1-1.23-0.15
		L594.53,235.68z"/>
	<g>
		<ellipse class="st5" cx="581.12" cy="251.34" rx="1.4" ry="3.36"/>
		<g>
			<g id="skin_2_">
				<ellipse class="st5" cx="594.91" cy="252.1" rx="13.79" ry="16.42"/>
			</g>
			<ellipse class="st5" cx="608.7" cy="251.34" rx="1.4" ry="3.36"/>
		</g>
	</g>
	<path class="st11" d="M600.67,233.99"/>
	<g id="hat_2_">
		<g>
			<ellipse class="st3" cx="602.27" cy="226.91" rx="8.49" ry="6.26"/>
		</g>
		<g>
			<path class="st3" d="M583.44,241.12h0.31h11.35V224c-3.84,2.75-7.67,5.51-11.51,8.26C583.54,235.21,583.49,238.17,583.44,241.12z
				"/>
			<path class="st3" d="M609.8,245.22"/>
			<path class="st3" d="M606.19,241.12h-0.31h-11.24v-15.94c3.86,2.23,7.72,4.47,11.58,6.7
				C606.21,234.96,606.2,238.04,606.19,241.12z"/>
			<ellipse class="st3" cx="586.7" cy="226.91" rx="9.14" ry="6.02"/>
			<ellipse class="st3" cx="594.64" cy="223.53" rx="8.49" ry="7.01"/>
			<line class="st6" x1="595.68" y1="227.48" x2="595.68" y2="239.04"/>
			<line class="st6" x1="590.94" y1="227.8" x2="590.94" y2="239.04"/>
			<line class="st6" x1="600.05" y1="227.48" x2="600.05" y2="239.04"/>
		</g>
	</g>
	<rect x="582.68" y="238.26" class="st3" width="24.35" height="3.57"/>
	<g id="eye1_4_">
		<path class="st12" d="M591.83,247.74c0,1.27-1.03,2.3-2.3,2.3c-1.27,0-2.3-1.03-2.3-2.3c0-1.21,1.01-2.07,1.87-2.26
			c0.2-0.04,0.36-0.04,0.43-0.04C590.47,245.47,591.83,246.29,591.83,247.74z"/>
		<path class="st5" d="M588.64,247.24c-0.39,0.36-0.94,0.4-2.05,0.49c-0.46,0.04-0.52,0-0.56-0.04c-0.41-0.52,1.81-3.75,2.67-3.41
			C589.29,244.5,589.48,246.46,588.64,247.24z"/>
	</g>
	<g id="eye1_3_">
		<path class="st12" d="M602.53,247.86c0,1.27-1.03,2.3-2.3,2.3c-1.27,0-2.3-1.03-2.3-2.3c0-1.21,1.01-2.07,1.87-2.26
			c0.2-0.04,0.36-0.04,0.43-0.04C601.17,245.59,602.53,246.41,602.53,247.86z"/>
		<path class="st5" d="M599.34,247.36c-0.39,0.36-0.94,0.4-2.05,0.49c-0.46,0.04-0.52,0-0.56-0.04c-0.41-0.52,1.81-3.75,2.67-3.41
			C599.99,244.61,600.18,246.57,599.34,247.36z"/>
	</g>
	<path class="st13" d="M589.38,260.69l6.45-0.61l5.82-0.55c-1,0.81-3.69,2.74-7.38,2.59C592.09,262.04,590.4,261.28,589.38,260.69z"
		/>
	<path class="st14" d="M590.75,260.89l4.83-0.46l4.36-0.41c-0.75,0.61-2.77,2.05-5.53,1.94
		C592.79,261.9,591.52,261.33,590.75,260.89z"/>
	<polyline class="st15" points="595.14,249.79 593.92,257.02 595.79,256.51 	"/>
	<path class="st16" d="M595.17,216.53c0.3,23.82,0.6,47.64,0.9,71.45c2.84-0.1,7.07-0.58,11.82-2.42c4.32-1.67,7.52-3.86,9.63-5.56
		c-0.93-1.37-1.86-2.75-2.79-4.12c-0.21-0.28-0.53-0.63-0.96-0.96c-0.48-0.37-0.94-0.59-1.28-0.72c-3.77-1.34-7.55-2.67-11.32-4.01
		v-3.39c0.21,0.06,0.53,0.13,0.93,0.15c0.41,0.02,0.67-0.02,1.22-0.08c0.32-0.03,0.78-0.08,1.34-0.11c0.57-0.07,1.19-0.12,1.86-0.15
		c0.65-0.03,1.27-0.02,1.84,0c0.11-0.05,0.28-0.13,0.45-0.27c0.47-0.36,0.7-0.88,1.03-2.08c0.27-1,0.37-1.55,0.37-1.55
		c0.3-1.68,0.4-3.04,0.42-3.45c0.12-1.97,0.04-3.46,0.01-3.83c-0.07-1.13-0.22-2.52-0.54-4.08c0.01-0.36-0.01-0.83-0.12-1.36
		c-0.12-0.58-0.31-1.05-0.48-1.4c-0.29-1.07-0.7-2.29-1.27-3.6c-0.53-1.21-1.1-2.26-1.65-3.16c0.15,0,0.3,0,0.45,0v-3.57h-0.81
		c0-1.94,0-3.87,0-5.81c0.29-0.1,3.83-1.41,4.44-4.59c0.04-0.19,0.25-1.43-0.27-2.79c-0.99-2.56-4.11-4.21-7.85-4.41
		c-0.5-0.75-1.68-2.27-3.77-3.25C597.32,216.72,596,216.56,595.17,216.53z"/>
</g>
<path class="st1" d="M792.94,565.69H487.06c-15.25,0-27.73-12.48-27.73-27.73v-43.7c0-15.25,12.48-27.73,27.73-27.73h305.88
	c15.25,0,27.73,12.48,27.73,27.73v43.7C820.67,553.22,808.19,565.69,792.94,565.69z"/>
<g>
	<path class="st17" d="M548.45,516.09c0,16.84-12.75,27.68-13.67,28.41c-9.5,7.62-19.89,7.95-22.69,7.95
		c-2.88,0-12.86-0.35-22.16-7.53c-0.8-0.62-14.51-11.57-14.2-28.83c0.32-17.52,14.99-36.36,36.36-36.36
		C532.17,479.72,548.45,496,548.45,516.09z"/>
	<g id="shirt_3_">
		<path class="st3" d="M534.78,544.5c-2.33,1.83-6.15,4.38-11.38,6.11c-9.49,3.14-17.44,1.52-19.2,1.13
			c-6.45-1.43-11.11-4.4-13.81-6.47c0.92-1.64,1.83-3.27,2.75-4.91l0.01-0.01c0.54-0.75,1.4-1.38,2.47-1.78l0.4-0.14l10.82-3.82
			v-3.42h11.45v3.42l10.82,3.82l0.4,0.14c1.07,0.41,1.93,1.03,2.47,1.78l0.01,0.01C532.91,541.74,533.85,543.12,534.78,544.5z"/>
		<circle class="st4" cx="512.56" cy="539.7" r="2.01"/>
		<circle class="st4" cx="512.56" cy="547.46" r="2.01"/>
	</g>
	<g>
		<ellipse class="st5" cx="498.65" cy="517.16" rx="1.41" ry="3.39"/>
		<g>
			<g id="skin_3_">
				<ellipse class="st5" cx="512.56" cy="517.93" rx="13.9" ry="16.56"/>
			</g>
			<ellipse class="st5" cx="526.46" cy="517.16" rx="1.41" ry="3.39"/>
		</g>
	</g>
	<g id="hat_3_">
		<g>
			<ellipse class="st3" cx="519.87" cy="494.25" rx="8.56" ry="8.32"/>
		</g>
		<g>
			<polygon class="st3" points="501.63,507.69 501.92,507.69 512.56,507.69 512.56,490.42 501.63,501.66 			"/>
			<polygon class="st3" points="523.02,507.69 522.73,507.69 512.09,507.69 512.09,490.42 523.02,501.66 			"/>
			<ellipse class="st3" cx="504.58" cy="493.94" rx="8.56" ry="8.32"/>
			<ellipse class="st3" cx="513.15" cy="491.12" rx="8.56" ry="8.32"/>
			<line class="st6" x1="513.15" y1="493.94" x2="513.15" y2="505.6"/>
			<line class="st6" x1="508.36" y1="494.25" x2="508.36" y2="505.6"/>
			<line class="st6" x1="517.55" y1="493.94" x2="517.55" y2="505.6"/>
		</g>
	</g>
	<path class="st7" d="M510.81,510.57"/>
	<g id="eye1_2_">
		<path class="st7" d="M509.41,513.77c0,1.28-1.04,2.32-2.32,2.32c-1.28,0-2.32-1.04-2.32-2.32c0-1.22,1.01-2.09,1.88-2.28
			c0.2-0.04,0.36-0.04,0.43-0.04C508.03,511.49,509.41,512.31,509.41,513.77z"/>
		<path class="st5" d="M506.19,513.26c-0.39,0.36-0.95,0.41-2.07,0.49c-0.47,0.04-0.53,0-0.56-0.05c-0.42-0.53,1.83-3.78,2.7-3.44
			C506.85,510.5,507.04,512.48,506.19,513.26z"/>
	</g>
	<path class="st7" d="M509.67,510.16"/>
	<g id="eye2_2_">
		<path class="st7" d="M519.91,514.05c0,1.28-1.04,2.32-2.32,2.32c-1.28,0-2.32-1.04-2.32-2.32c0-1.22,1.01-2.09,1.88-2.28
			c0.2-0.04,0.36-0.04,0.43-0.04C518.54,511.77,519.91,512.6,519.91,514.05z"/>
		<path class="st5" d="M516.88,513.52c-0.38,0.36-0.94,0.4-2.04,0.48c-0.46,0.04-0.52,0-0.55-0.04c-0.41-0.52,1.8-3.72,2.66-3.39
			C517.52,510.8,517.71,512.75,516.88,513.52z"/>
	</g>
	<path class="st3" d="M516.35,524.54c0,1.05-1.7,1.9-3.8,1.9c-2.1,0-3.8-0.85-3.8-1.9s1.7-1.9,3.8-1.9
		C514.65,522.63,516.35,523.49,516.35,524.54z"/>
	<g id="moustache_2_">
		<path class="st7" d="M513.7,522.52c-0.09-0.73-4.57-1.65-7.36,0.66c-0.26,0.21-1.42,1.18-1.2,1.61
			C505.66,525.84,513.83,523.54,513.7,522.52z"/>
		<path class="st7" d="M511.39,522.52c0.09-0.73,4.57-1.65,7.36,0.66c0.26,0.21,1.42,1.18,1.2,1.61
			C519.43,525.84,511.26,523.54,511.39,522.52z"/>
	</g>
	<path class="st3" d="M534.11,550.27"/>
</g>
<line class="st18" x1="658.41" y1="233.99" x2="850.41" y2="233.99"/>
<line class="st18" x1="658.41" y1="257.02" x2="754.41" y2="257.02"/>
<line class="st18" x1="606.22" y1="355.09" x2="743.12" y2="355.09"/>
<line class="st18" x1="606.22" y1="378.32" x2="799.59" y2="378.32"/>
<line class="st18" x1="577.56" y1="494.25" x2="766.41" y2="494.25"/>
<line class="st18" x1="577.56" y1="520.55" x2="628.06" y2="520.55"/>
</svg>
