<svg id="Layer_1" data-name="Layer 1" xmlns="http://www.w3.org/2000/svg" viewBox="0 0 551.14 442.15"><defs><style>.cls-1{fill:#009444;}.cls-2{fill:#e6e7e8;}.cls-3,.cls-5,.cls-6{fill:#bcbec0;}.cls-3{stroke:#d1d3d4;}.cls-3,.cls-6{stroke-miterlimit:10;stroke-width:7px;}.cls-4{fill:#39b54a;}.cls-6{stroke:#bcbec0;}</style></defs><polygon class="cls-1" points="275.57 301.15 551.14 160.15 0 160.15 275.57 301.15"/><rect class="cls-2" x="31.02" width="489.09" height="400.82" rx="12"/><polygon class="cls-1" points="275.57 301.15 0 442.15 551.14 442.15 275.57 301.15"/><line class="cls-3" x1="70.11" y1="217.05" x2="481.03" y2="217.05"/><polygon class="cls-4" points="275.57 301.15 551.14 160.15 551.14 442.15 275.57 301.15"/><polygon class="cls-4" points="275.57 301.15 0 160.15 0 442.15 275.57 301.15"/><rect class="cls-5" x="69.32" y="31.34" width="193.28" height="95.8" rx="12.18"/><line class="cls-6" x1="304.61" y1="39.74" x2="476.88" y2="39.74"/><line class="cls-6" x1="304.61" y1="68.31" x2="476.88" y2="68.31"/><line class="cls-6" x1="304.61" y1="96.88" x2="476.88" y2="96.88"/><line class="cls-3" x1="69.32" y1="160.15" x2="480.24" y2="160.15"/><line class="cls-3" x1="70.11" y1="186.8" x2="481.03" y2="186.8"/></svg>