<?xml version="1.0" encoding="utf-8"?>
<!-- Generator: Adobe Illustrator 25.2.0, SVG Export Plug-In . SVG Version: 6.00 Build 0)  -->
<svg version="1.1" id="Layer_1" xmlns="http://www.w3.org/2000/svg" xmlns:xlink="http://www.w3.org/1999/xlink" x="0px" y="0px"
	 viewBox="0 0 1280 720" style="enable-background:new 0 0 1280 720;" xml:space="preserve">
<style type="text/css">
	.st20{opacity:0.65;fill:#8BC249;}
	.st21{fill:#A97C50;}
	.st22{fill:#E6E7E8;}
	.st23{fill:#939598;}
	.st24{fill:#E6E7E8;stroke:#808285;stroke-width:2;stroke-miterlimit:10;}
	.st25{fill:#009444;}
	.st26{fill:#A7A9AC;}
	.st27{fill:#825559;}
	.st28{fill:#FFFFFF;stroke:#594A42;stroke-width:5;stroke-miterlimit:10;}
	.st29{fill:#D08467;stroke:#58595B;stroke-width:5;stroke-miterlimit:10;}
	.st30{fill:#FFFFFF;stroke:#58595B;stroke-width:5;stroke-miterlimit:10;}
	.st31{fill:#FFFFFF;}
	.st32{fill:#F1687D;}
	.st33{fill:#D08467;stroke:#58595B;stroke-miterlimit:10;}
	.st34{fill:#6D6E71;}
	.st35{fill:#396AB3;}
	.st36{fill:none;stroke:#FBB040;stroke-width:2;stroke-miterlimit:10;}
	.st37{fill:#BE1E2D;}
	.st38{fill:#603913;}
	.st39{fill:#3C2415;}
</style>
<ellipse class="st20" cx="662.56" cy="426.36" rx="219.04" ry="97.21"/>
<g id="checklist">
	<path class="st21" d="M646.15,437.4l-147.49-0.84c-4.78-0.03-7.31-4.37-5.63-9.66l77.97-244.46c1.69-5.28,6.98-9.59,11.76-9.56
		l147.49,0.84c4.78,0.03,7.31,4.37,5.63,9.66l-77.97,244.46C656.22,433.12,650.93,437.43,646.15,437.4z"/>
	<path class="st22" d="M626.15,428.89l-116.85-1.3c-5.12-0.06-7.74-4.6-5.81-10.11l80.87-230.68c1.93-5.5,7.7-9.96,12.82-9.9
		l116.85,1.3c5.12,0.06,7.74,4.6,5.81,10.11L638.97,419C637.04,424.5,631.27,428.95,626.15,428.89z"/>
	<path class="st23" d="M673.59,183.38h-48.62c-5.78,0-10.51-4.73-10.51-10.51v0c0-5.78,4.73-10.51,10.51-10.51h48.62
		c5.78,0,10.51,4.73,10.51,10.51v0C684.1,178.65,679.37,183.38,673.59,183.38z"/>
	<path class="st24" d="M592.25,217.1L592.25,217.1c-4.8-0.06-7.26-4.75-5.45-10.43v0c1.81-5.68,7.22-10.27,12.02-10.21l0,0
		c4.8,0.06,7.26,4.75,5.45,10.43v0C602.47,212.56,597.06,217.15,592.25,217.1z"/>
	<g>
		<g>
			<path class="st25" d="M588.66,205.88c0.85,1.56,1.55,3.12,2.54,4.6c0.94,1.41,1.53,2.96,3.33,3.49c1.74,0.51,3.16-0.58,3.95-2.02
				c0.7-1.29,1.52-2.48,2.45-3.62c1.99-2.44,4.38-4.17,7-5.87c1.22-0.79,2.42-1.78,3.72-2.41c0.65-0.32,1.24-0.63,1.86-0.98
				c0.71-0.4,1.4-0.57,1.97-1.28c0.85-1.05,1.02-2.51,0-3.54c-0.88-0.88-2.68-1.05-3.54,0c0.01-0.01,0.19-0.01,0.22-0.03
				c-0.26,0.16-0.59,0.22-0.86,0.36c-0.44,0.22-0.82,0.53-1.25,0.75c-0.98,0.51-1.85,0.97-2.77,1.59c-1.76,1.18-3.59,2.27-5.29,3.54
				c-1.77,1.32-3.34,2.77-4.73,4.5c-0.79,0.97-1.55,1.97-2.25,3.01c-0.27,0.4-0.52,0.81-0.74,1.24c-0.07,0.13-0.2,0.31-0.23,0.45
				c-0.04,0.2,0.33-0.41,0.69-0.46c0.44,0,0.89,0,1.33,0c0.27,0.04,0.15,0.19,0.14,0.06c-0.02-0.16-0.23-0.48-0.32-0.64
				c-0.31-0.56-0.71-1.03-1.06-1.57c-0.73-1.15-1.21-2.47-1.86-3.67C591.45,200.53,587.13,203.05,588.66,205.88L588.66,205.88z"/>
		</g>
	</g>
	<path class="st24" d="M580.8,254.4L580.8,254.4c-4.8-0.06-7.26-4.75-5.45-10.43v0c1.81-5.68,7.22-10.27,12.02-10.21l0,0
		c4.8,0.06,7.26,4.75,5.45,10.43v0C591.01,249.87,585.6,254.46,580.8,254.4z"/>
	<g>
		<g>
			<path class="st25" d="M577.21,243.19c0.85,1.56,1.55,3.12,2.54,4.6c0.94,1.41,1.53,2.96,3.33,3.49c1.74,0.51,3.16-0.58,3.95-2.02
				c0.7-1.29,1.52-2.48,2.45-3.62c1.99-2.44,4.38-4.17,7-5.87c1.22-0.79,2.42-1.78,3.72-2.41c0.65-0.32,1.24-0.63,1.86-0.98
				c0.71-0.4,1.4-0.57,1.97-1.28c0.85-1.05,1.02-2.51,0-3.54c-0.88-0.88-2.68-1.05-3.54,0c0.01-0.01,0.19-0.01,0.22-0.03
				c-0.26,0.16-0.59,0.22-0.86,0.36c-0.44,0.22-0.82,0.53-1.25,0.75c-0.98,0.51-1.85,0.97-2.77,1.59c-1.76,1.18-3.59,2.27-5.29,3.54
				c-1.77,1.32-3.34,2.77-4.73,4.5c-0.79,0.97-1.55,1.97-2.25,3.01c-0.27,0.4-0.52,0.81-0.74,1.24c-0.07,0.13-0.2,0.31-0.23,0.45
				c-0.04,0.2,0.33-0.41,0.69-0.46c0.44,0,0.89,0,1.33,0c0.27,0.04,0.15,0.19,0.14,0.06c-0.02-0.16-0.23-0.48-0.32-0.64
				c-0.31-0.56-0.71-1.03-1.06-1.57c-0.73-1.15-1.21-2.47-1.86-3.67C579.99,237.84,575.68,240.36,577.21,243.19L577.21,243.19z"/>
		</g>
	</g>
	<path class="st24" d="M567.04,297.65L567.04,297.65c-4.8-0.06-7.26-4.75-5.45-10.43l0,0c1.81-5.68,7.22-10.27,12.02-10.21l0,0
		c4.8,0.06,7.26,4.75,5.45,10.43v0C577.25,293.11,571.84,297.71,567.04,297.65z"/>
	<g>
		<g>
			<path class="st25" d="M563.45,286.44c0.85,1.56,1.55,3.12,2.54,4.6c0.94,1.41,1.53,2.96,3.33,3.49c1.74,0.51,3.16-0.58,3.95-2.02
				c0.7-1.29,1.52-2.48,2.45-3.62c1.99-2.44,4.38-4.17,7-5.87c1.22-0.79,2.42-1.78,3.72-2.41c0.65-0.32,1.24-0.63,1.86-0.98
				c0.71-0.4,1.4-0.57,1.97-1.28c0.85-1.05,1.02-2.51,0-3.54c-0.88-0.88-2.68-1.05-3.54,0c0.01-0.01,0.19-0.01,0.22-0.03
				c-0.26,0.16-0.59,0.22-0.86,0.36c-0.44,0.22-0.82,0.53-1.25,0.75c-0.98,0.51-1.85,0.97-2.77,1.59c-1.76,1.18-3.59,2.27-5.29,3.54
				c-1.77,1.32-3.34,2.77-4.73,4.5c-0.79,0.97-1.55,1.97-2.25,3.01c-0.27,0.4-0.52,0.81-0.74,1.24c-0.07,0.13-0.2,0.31-0.23,0.45
				c-0.04,0.2,0.33-0.41,0.69-0.46c0.44,0,0.89,0,1.33,0c0.27,0.04,0.15,0.19,0.14,0.06c-0.02-0.16-0.23-0.48-0.32-0.64
				c-0.31-0.56-0.71-1.03-1.06-1.57c-0.73-1.15-1.21-2.47-1.86-3.67C566.23,281.08,561.92,283.6,563.45,286.44L563.45,286.44z"/>
		</g>
	</g>
	<path class="st24" d="M555.42,334.49L555.42,334.49c-4.8-0.06-7.26-4.75-5.45-10.43v0c1.81-5.68,7.22-10.27,12.02-10.21h0
		c4.8,0.06,7.26,4.75,5.45,10.43h0C565.64,329.95,560.23,334.55,555.42,334.49z"/>
	<g>
		<g>
			<path class="st26" d="M626.33,203.52c-0.22,0.21-0.49,0.16-0.08,0.12c0.28-0.03,0.51-0.11,0.67-0.14
				c0.54-0.07,1.08-0.09,1.62-0.12c2.09-0.13,4.18-0.05,6.27,0c4.34,0.1,8.68,0.02,13.02,0.02c2.02,0,4.04-0.04,6.06,0
				c0.86,0.02,1.69,0.2,2.54,0.31c1.09,0.15,2.14,0.08,3.23,0.08c0.96-0.01,1.9,0.26,2.86,0.37c0.99,0.12,1.99,0.09,2.99,0.08
				c2.1,0,4.21-0.06,6.31,0.14c2.23,0.22,4.41,0.43,6.63,0.02c1.05-0.19,2.05-0.54,3.11-0.68c1.22-0.16,2.45-0.21,3.68-0.34
				c1.34-0.14,2.5-1.05,2.5-2.5c0-1.24-1.15-2.64-2.5-2.5c-2.2,0.23-4.45,0.28-6.61,0.82c-1.94,0.48-3.68,0.49-5.68,0.29
				c-2.17-0.22-4.31-0.26-6.5-0.26c-1.02,0-2.05,0.05-3.06-0.01c-1.1-0.06-2.17-0.39-3.27-0.45c-0.98-0.05-1.96,0.12-2.95,0.01
				c-0.96-0.11-1.9-0.34-2.86-0.4c-2.15-0.12-4.33-0.01-6.48-0.01c-4.49,0-8.99,0.08-13.48-0.03c-2.15-0.06-4.29-0.09-6.44,0.05
				c-1.77,0.12-3.79,0.24-5.12,1.56C620.51,202.25,624.04,205.79,626.33,203.52L626.33,203.52z"/>
		</g>
	</g>
	<g>
		<g>
			<path class="st26" d="M620.9,214.44c2.58,0,5.19,0.12,7.77-0.03c2.53-0.14,5-0.39,7.54-0.39c2.53,0,5.07,0.03,7.6-0.04
				c2.33-0.06,4.69-0.19,6.98,0.36c3.13,0.76,4.46-4.06,1.33-4.82c-2.51-0.61-5.06-0.63-7.63-0.56c-2.6,0.07-5.2,0.06-7.79,0.06
				c-2.54,0-5.02,0.18-7.55,0.36c-2.73,0.19-5.5,0.06-8.23,0.06C617.68,209.45,617.67,214.45,620.9,214.44L620.9,214.44z"/>
		</g>
	</g>
	<g>
		<g>
			<path class="st26" d="M614.79,241.62c1.77-0.02,3.46-0.51,5.24-0.47c1.9,0.04,3.8,0.05,5.7,0.05c1.93,0,3.86-0.02,5.79,0
				c1.93,0.02,3.85,0.26,5.78,0.37c3.91,0.23,7.87,0.05,11.78,0.05c4.04,0,8.09,0,12.13,0c3.22,0,3.22-5,0-5c-3.96,0-7.92,0-11.88,0
				c-4,0-8.04,0.18-12.03-0.05c-1.85-0.11-3.69-0.35-5.54-0.37c-1.93-0.02-3.86,0-5.78,0c-1.91,0-3.81,0.01-5.71-0.04
				c-1.87-0.05-3.64,0.44-5.48,0.46C611.57,236.67,611.56,241.67,614.79,241.62L614.79,241.62z"/>
		</g>
	</g>
	<g>
		<g>
			<path class="st26" d="M603.43,281.63c1.41-0.78,3.17-0.63,4.72-0.58c1.97,0.07,3.94,0.07,5.92,0.07c4.59,0,9.19,0,13.78,0
				c2.16,0,4.33,0.06,6.49-0.03c0.98-0.04,1.73,0.08,2.68,0.25c1.13,0.21,2.23,0.21,3.38,0.2c4.34-0.02,8.68,0.03,13.02,0.12
				c4.89,0.1,9.85-0.02,14.56-1.48c3.06-0.95,1.76-5.78-1.33-4.82c-4.08,1.26-8.29,1.39-12.53,1.32c-4.41-0.07-8.82-0.15-13.23-0.14
				c-0.97,0-1.97,0.1-2.92-0.1c-1.06-0.22-2.09-0.41-3.18-0.38c-2.23,0.07-4.46,0.06-6.69,0.06c-4.59,0-9.18,0-13.78,0
				c-2.32,0-4.63-0.05-6.95-0.09c-2.24-0.04-4.47,0.18-6.46,1.28C598.08,278.86,600.6,283.18,603.43,281.63L603.43,281.63z"/>
		</g>
	</g>
	<g>
		<g>
			<path class="st26" d="M600.13,293.86c9.86,0.01,19.71,0.42,29.57,0.42c4.79,0,9.58,0,14.37,0c2.42,0,4.85,0,7.27,0
				c2.25,0,4.51,0.42,6.34-1.15c1.03-0.88,0.9-2.63,0-3.54c-1.02-1.02-2.51-0.88-3.54,0c0.65-0.22,0.7-0.31,0.17-0.27
				c-0.23-0.01-0.46-0.03-0.68-0.03c-0.46-0.01-0.92-0.01-1.38-0.01c-1.09,0-2.19,0-3.28,0c-2.29,0-4.59,0-6.88,0
				c-4.62,0-9.24,0-13.86,0c-9.38,0-18.74-0.42-28.12-0.42C596.91,288.86,596.9,293.86,600.13,293.86L600.13,293.86z"/>
		</g>
	</g>
	<g>
		<g>
			<path class="st26" d="M585.26,322.74c3.31,0,6.62,0.01,9.93,0c1.52,0,3.04-0.09,4.55,0c1.61,0.1,3.2,0.48,4.81,0.69
				c3.12,0.4,6.31,0.2,9.45,0.16c3.33-0.04,6.63,0.39,9.95,0.42c3.22,0.02,3.22-4.98,0-5c-3.25-0.02-6.47-0.45-9.72-0.42
				c-3.13,0.03-6.37,0.3-9.48-0.14c-1.6-0.23-3.17-0.57-4.78-0.7c-1.51-0.11-3.03-0.02-4.54-0.02c-3.39,0.01-6.78,0-10.17,0
				C582.05,317.74,582.04,322.74,585.26,322.74L585.26,322.74z"/>
		</g>
	</g>
	<g>
		<g>
			<path class="st26" d="M581.65,332.5c5.16,0,10.32,0,15.48,0c1.31,0,2.56-1.15,2.5-2.5c-0.06-1.35-1.1-2.5-2.5-2.5
				c-5.16,0-10.32,0-15.48,0c-1.31,0-2.56,1.15-2.5,2.5C579.21,331.36,580.25,332.5,581.65,332.5L581.65,332.5z"/>
		</g>
	</g>
</g>
<g id="meat">
	<path class="st27" d="M857.41,406.36c-20.73-1.84-42.71-4.62-65.75-8.66c-10.76-1.89-21.19-3.95-31.27-6.15
		c-3.21,2.43-7.61,5.24-13.23,7.52c-8.66,3.51-16.45,4.23-21.53,4.27c58.74,10.79,101.79,16.26,108.49,15.84
		c9.37-0.59,16.1-4.79,16.1-4.79l0,0C854.02,411.66,856.25,408.36,857.41,406.36z"/>
	
		<ellipse transform="matrix(0.4067 -0.9136 0.9136 0.4067 122.604 873.7936)" class="st28" cx="734.01" cy="342.51" rx="62.18" ry="53.78"/>
	<path class="st29" d="M759.3,285.7c2.6,1.36,5.21,2.72,7.81,4.08c4.12,2.83,8.25,5.66,12.37,8.49l74.88,75.55
		c0.8,0.88,10.34,11.68,6.95,25.24c-2.91,11.62-14.07,20.27-27.37,20.63c-38.86-5.69-77.72-11.39-116.57-17.08
		c2.77,0.15,34.06,1.29,55.15-21.39c1.6-1.72,3.15-3.59,4.62-5.6c3.85-5.27,16.05-23.7,11.46-48.19
		C783.61,300.79,762.63,287.69,759.3,285.7z"/>
	<path class="st30" d="M857.11,409.43l24.56,10.93c-6.75,9.06-4.18,20.71,2.85,24.84c5.62,3.3,14.88,2.26,19.18-4.41
		c3.37-5.22,2.76-12.44-1.68-17.54c7.93,0.7,14.64-4.97,15.27-11.75c0.66-7.06-5.51-12.67-11.53-14.02
		c-7.37-1.65-13.13,3.39-13.73,3.93c-2.38,2.76-4.77,5.51-7.15,8.27c-7.89-3.46-15.78-6.93-23.68-10.39L857.11,409.43z"/>
	
		<ellipse transform="matrix(0.4067 -0.9136 0.9136 0.4067 122.5252 873.2964)" class="st31" cx="733.59" cy="342.32" rx="61.18" ry="52.32"/>
	
		<ellipse transform="matrix(0.4067 -0.9136 0.9136 0.4067 122.5252 873.2964)" class="st32" cx="733.59" cy="342.32" rx="47.77" ry="35.46"/>
	<circle class="st31" cx="734.01" cy="342.51" r="9.26"/>
</g>
<path class="st33" d="M1084.29,622.65"/>
<g id="pasta">
	<path class="st34" d="M766.53,444.77c-0.13,16.66-50.5,33.27-93.9,32.03c-41.36-1.18-89.15-18.95-88.69-35.32
		c0.46-16.28,48.64-30.48,88-30.59C715.61,410.77,766.67,427.95,766.53,444.77z"/>
	<path class="st35" d="M674.24,447.15"/>
	<ellipse class="st23" cx="676.18" cy="440.9" rx="61.41" ry="20.82"/>
	<path class="st36" d="M694.21,428.58c2.68-1.65,7.04-3.82,11.04-2.88c2.33,0.54,2.94,1.76,6.42,4.67
		c6.68,5.57,10.21,5.9,10.03,7.77c-0.26,2.77-8.28,5.55-15.86,5.76c-10.92,0.31-18.08-4.81-22.71-2.03
		c-2.23,1.34-1.65,3.19-3.59,3.55c-3.36,0.63-8.7-4.24-10.29-9.27c-0.47-1.48-1.3-4.11,0.26-6.96c3-5.51,12-6.46,12.64-6.52
		c1.76-0.17,1.44,0.09,5.22,0.15c9.41,0.14,11.81-1.47,16.06-0.15c2.81,0.87,4.41,2.4,5.47,3.41c3.84,3.67,5.23,9.2,2.96,10.4
		c-0.79,0.42-1.47,0.01-3.41-0.15c-5.15-0.43-7.64,1.83-16.06,3.94c0,0-3.04,0.77-5.82,1.21c-11.33,1.82-27.03-1.37-28.31-6.62
		c-0.64-2.64,2.26-6.17,5.83-7.79c1.05-0.48,1.9-0.67,2.98-0.92c6.79-1.55,12.82,0.15,13.88,0.46c3.48,1.02,2.75,1.62,7.63,3.64
		c6.74,2.8,10.74,2.74,10.84,3.94c0.11,1.36-4.89,3-9.43,3.49c-8.95,0.96-19.07-2.22-19.28-5.32c-0.12-1.73,2.86-3.42,3.02-3.33
		c0.16,0.09-2,2-1.4,2.58c1.05,1.02,8.76-3.95,12.54-2.09c1.32,0.65,2.08,2.1,1.51,2.85c-1.31,1.75-10.28,0.55-10.57-1.03
		c-0.46-2.53,21.46-4.83,21.21-8.37c-0.19-2.62-12.42-4.55-19.27-3.94c-3.26,0.29-5.94,1.05-5.94,1.05
		c-2.62,0.75-2.09,1.01-5.9,2.29c-1.85,0.62-3.72,1.14-6.29,2.37c-0.29,0.14-0.58,0.28-0.74,0.36c-1.7,0.88-6.27,3.85-6.82,8.65
		c-0.1,0.86-0.38,4.41,2.61,7.43c4.15,4.2,12.31,5.04,18.06,4.25c11.67-1.61,9.39-9.39,25.49-15.78c3.13-1.24,10.9-4,13.25-8.65
		c0.51-1.02,0.6-1.79,0.2-2.43c-0.91-1.47-4.35-1.74-11.24-2.28c-1.19-0.09-2.47-0.17-4.11-0.13c0,0-2.26,0.06-4.72,0.43
		c-11.15,1.71-18.67,6.07-18.67,6.07c-5.47,3.18-9.38,5.45-9.83,8.8c-1.03,7.69,16.67,16.88,25.49,14.11
		c4.48-1.41,3.47-4.9,12.85-12.14c2.74-2.12,4.15-2.85,4.01-4.1c-0.37-3.32-11.47-7.68-19.87-4.55c-6.41,2.39-10.14,8.74-7.83,12.44
		c2.78,4.45,13.59,3.99,25.09,3.49c8.25-0.36,10.86-1.55,12.44-2.58c5.5-3.57,5.08-9.33,5.02-10.16c-0.09-1.27-0.3-4.11-2.61-5.01
		c-1.7-0.66-3.78,0.02-4.62,0.3c-6.36,2.16-9.54,3.23-23.88,8.8c-12.78,4.96-31.01,2.17-32.72-1.97
		c-1.68-4.07,11.78-11.34,22.88-14.41c2.21-0.61,13.29-3.54,26.69-1.21c5.45,0.95,10.94,1.9,14.85,5.76
		c3.77,3.72,5.85,9.94,2.81,11.98c-5.3,3.57-28.15-4.16-29.3-13.96c-0.29-2.49,0.63-6.7,4.82-8.34c3.37-1.32,8.57-0.87,11.04,1.82
		c3.17,3.45,0.01,8.56-3.61,9.56c-2.14,0.59-4.13-0.35-9.03-2.58c-16.12-7.33-18.56-8.07-21.28-7.89c-5.83,0.4-9.69,4.88-11.24,6.68
		c-8.68,10.07-0.74,23.09,0.2,24.58"/>
	<path class="st36" d="M673.23,411.78c2.29-1.58,6-3.65,9.41-2.75c1.98,0.52,2.51,1.69,5.48,4.46c5.69,5.32,8.7,5.64,8.55,7.43
		c-0.22,2.64-7.06,5.3-13.52,5.51c-9.31,0.29-15.41-4.6-19.35-1.94c-1.9,1.28-1.4,3.05-3.06,3.39c-2.86,0.6-7.42-4.06-8.77-8.86
		c-0.4-1.41-1.11-3.93,0.22-6.65c2.56-5.27,10.23-6.18,10.78-6.23c1.5-0.16,1.23,0.09,4.45,0.14c8.02,0.14,10.07-1.4,13.69-0.14
		c2.39,0.83,3.76,2.29,4.66,3.25c3.28,3.51,4.45,8.79,2.53,9.94c-0.67,0.4-1.25,0.01-2.91-0.14c-4.39-0.41-6.52,1.75-13.69,3.77
		c0,0-2.6,0.73-4.96,1.16c-9.65,1.74-23.04-1.31-24.13-6.33c-0.55-2.52,1.93-5.9,4.97-7.45c0.89-0.46,1.62-0.64,2.54-0.88
		c5.78-1.48,10.92,0.14,11.83,0.44c2.97,0.98,2.34,1.54,6.5,3.48c5.75,2.67,9.15,2.62,9.24,3.77c0.09,1.3-4.16,2.87-8.04,3.33
		c-7.63,0.92-16.26-2.12-16.43-5.08c-0.1-1.66,2.44-3.26,2.58-3.18c0.14,0.08-1.71,1.91-1.2,2.46c0.9,0.97,7.47-3.78,10.69-2
		c1.13,0.62,1.77,2,1.29,2.72c-1.12,1.67-8.76,0.52-9.01-0.99c-0.39-2.41,18.29-4.62,18.08-8c-0.16-2.5-10.58-4.35-16.42-3.77
		c-2.78,0.27-5.06,1-5.06,1c-2.23,0.71-1.78,0.97-5.03,2.18c-1.58,0.59-3.17,1.09-5.36,2.26c-0.25,0.13-0.49,0.27-0.63,0.35
		c-1.45,0.84-5.34,3.67-5.82,8.26c-0.08,0.82-0.32,4.22,2.22,7.1c3.54,4.01,10.49,4.82,15.4,4.06c9.95-1.54,8.01-8.98,21.73-15.08
		c2.67-1.19,9.29-3.82,11.29-8.26c0.44-0.97,0.51-1.71,0.17-2.32c-0.77-1.4-3.71-1.66-9.58-2.17c-1.02-0.09-2.11-0.16-3.5-0.13
		c0,0-1.93,0.05-4.03,0.42c-9.51,1.63-15.91,5.8-15.91,5.8c-4.67,3.04-8,5.2-8.38,8.41c-0.88,7.34,14.21,16.13,21.73,13.48
		c3.82-1.34,2.96-4.68,10.95-11.6c2.33-2.02,3.54-2.72,3.42-3.91c-0.32-3.18-9.78-7.34-16.94-4.35c-5.47,2.29-8.64,8.35-6.67,11.89
		c2.37,4.25,11.58,3.81,21.38,3.33c7.03-0.34,9.26-1.48,10.61-2.46c4.69-3.41,4.33-8.92,4.28-9.71c-0.08-1.21-0.26-3.92-2.22-4.78
		c-1.45-0.63-3.22,0.02-3.93,0.29c-5.42,2.06-8.14,3.09-20.36,8.41c-10.89,4.74-26.43,2.07-27.89-1.88
		c-1.43-3.89,10.04-10.84,19.5-13.77c1.88-0.58,11.33-3.38,22.75-1.16c4.65,0.9,9.33,1.81,12.66,5.51c3.21,3.56,4.99,9.49,2.4,11.45
		c-4.52,3.41-24-3.98-24.98-13.34c-0.25-2.38,0.54-6.41,4.11-7.97c2.87-1.26,7.3-0.83,9.41,1.74c2.7,3.29,0.01,8.18-3.08,9.13
		c-1.82,0.56-3.52-0.33-7.7-2.46c-13.74-7.01-15.82-7.72-18.13-7.54c-4.97,0.38-8.26,4.66-9.58,6.38
		c-7.39,9.62-0.63,22.06,0.17,23.48"/>
	<path class="st36" d="M692.15,429.98c3.75-2.61,9.85-6.02,15.44-4.55c3.25,0.86,4.12,2.78,8.98,7.36
		c9.34,8.78,14.27,9.31,14.03,12.26c-0.36,4.36-11.59,8.75-22.17,9.09c-15.28,0.49-25.29-7.59-31.75-3.21
		c-3.12,2.12-2.3,5.03-5.02,5.6c-4.7,0.99-12.17-6.69-14.39-14.63c-0.65-2.33-1.82-6.48,0.36-10.97
		c4.2-8.69,16.78-10.19,17.68-10.29c2.46-0.26,2.02,0.15,7.3,0.24c13.17,0.22,16.52-2.31,22.46-0.24c3.93,1.37,6.17,3.78,7.64,5.37
		c5.37,5.78,7.31,14.51,4.15,16.4c-1.11,0.66-2.05,0.02-4.77-0.24c-7.2-0.68-10.69,2.88-22.46,6.22c0,0-4.26,1.21-8.14,1.91
		c-15.84,2.88-37.8-2.17-39.59-10.44c-0.9-4.16,3.16-9.74,8.15-12.29c1.47-0.75,2.66-1.06,4.17-1.45
		c9.49-2.44,17.92,0.23,19.41,0.73c4.87,1.62,3.84,2.55,10.67,5.74c9.43,4.41,15.02,4.32,15.16,6.22c0.15,2.15-6.83,4.73-13.19,5.5
		c-12.52,1.52-26.67-3.49-26.96-8.39c-0.16-2.73,4-5.39,4.23-5.24c0.22,0.14-2.8,3.15-1.96,4.07c1.47,1.61,12.26-6.23,17.53-3.3
		c1.85,1.03,2.9,3.31,2.11,4.49c-1.83,2.76-14.38,0.86-14.78-1.63c-0.64-3.98,30.02-7.62,29.66-13.2
		c-0.26-4.13-17.36-7.17-26.95-6.22c-4.56,0.45-8.3,1.66-8.3,1.66c-3.67,1.18-2.93,1.6-8.26,3.61c-2.58,0.97-5.21,1.8-8.8,3.74
		c-0.4,0.22-0.81,0.44-1.03,0.57c-2.38,1.38-8.77,6.06-9.54,13.64c-0.14,1.35-0.53,6.96,3.65,11.72c5.8,6.62,17.22,7.95,25.26,6.7
		c16.32-2.54,13.14-14.81,35.65-24.88c4.37-1.96,15.24-6.3,18.53-13.64c0.72-1.61,0.83-2.82,0.28-3.83
		c-1.27-2.31-6.08-2.74-15.72-3.59c-1.67-0.15-3.46-0.27-5.74-0.21c0,0-3.16,0.09-6.61,0.69c-15.6,2.69-26.1,9.57-26.1,9.57
		c-7.66,5.01-13.12,8.59-13.75,13.88c-1.44,12.12,23.32,26.62,35.65,22.25c6.26-2.22,4.86-7.72,17.96-19.14
		c3.83-3.34,5.81-4.49,5.61-6.46c-0.52-5.24-16.04-12.12-27.79-7.18c-8.97,3.77-14.18,13.78-10.95,19.62
		c3.89,7.02,19,6.28,35.09,5.5c11.54-0.56,15.19-2.44,17.4-4.07c7.69-5.63,7.1-14.72,7.02-16.03c-0.13-2-0.42-6.48-3.65-7.89
		c-2.37-1.04-5.28,0.03-6.46,0.48c-8.9,3.4-13.35,5.1-33.4,13.88c-17.87,7.82-43.36,3.42-45.75-3.11
		c-2.34-6.41,16.48-17.88,32-22.73c3.09-0.96,18.59-5.58,37.33-1.91c7.63,1.49,15.3,2.99,20.77,9.09c5.27,5.87,8.18,15.67,3.93,18.9
		c-7.41,5.63-39.37-6.57-40.98-22.01c-0.41-3.93,0.89-10.57,6.74-13.16c4.71-2.08,11.98-1.37,15.44,2.87
		c4.43,5.43,0.01,13.5-5.05,15.07c-2.99,0.93-5.77-0.55-12.63-4.07c-22.55-11.56-25.96-12.73-29.75-12.44
		c-8.16,0.63-13.55,7.69-15.72,10.53c-12.13,15.88-1.04,36.41,0.28,38.76"/>
	<path class="st36" d="M667.9,433.94c4.08-1.4,10.25-2.8,13.36,0.81c1.81,2.1,1.35,4.47,2.22,11.12
		c1.69,12.77,4.86,15.13,3.05,18.19c-2.67,4.51-12.99,5.08-20.62,1.56c-11-5.07-13.55-17.34-20.52-15.04
		c-3.37,1.11-4.41,4.51-6.63,4.12c-3.85-0.67-4.83-11.58-1.99-20.84c0.83-2.72,2.32-7.56,6.34-11.55
		c7.77-7.71,17.44-4.71,18.13-4.48c1.87,0.62,1.33,0.9,4.99,2.93c9.12,5.06,12.88,3.58,15.9,7.97c2,2.9,2.23,6.28,2.39,8.52
		c0.56,8.13-2.92,18.12-6.19,18.98c-1.14,0.3-1.45-0.73-3.22-2c-4.68-3.36-9.11-0.85-19.22-1.6c0,0-3.66-0.27-6.78-0.94
		c-12.72-2.73-25.34-16.14-22.01-25.61c1.68-4.76,7.63-9.21,12.55-10.1c1.45-0.26,2.46-0.15,3.73-0.01
		c8.02,0.87,12.45,6.81,13.23,7.88c2.52,3.5,1.28,4.12,4.3,10.02c4.17,8.15,8.15,10.1,7.19,12.17c-1.08,2.34-7.42,2.54-12.32,1.03
		c-9.64-2.97-16.79-13.48-14.27-18.8c1.4-2.97,5.79-4.27,5.88-4.04c0.08,0.23-3.72,2.33-3.64,3.61c0.14,2.25,12.06-2.15,14.14,2.91
		c0.73,1.77,0.2,4.58-1.01,5.56c-2.81,2.26-10.58-4.34-9.48-7.15c1.76-4.48,25.31,2.88,28.15-3.2c2.11-4.49-8.21-13.99-15.47-16.49
		c-3.45-1.19-6.75-1.27-6.75-1.27c-3.23-0.09-2.94,0.63-7.8,0.82c-2.36,0.09-4.65,0.01-8.25,0.76c-0.4,0.08-0.81,0.18-1.04,0.23
		c-2.44,0.6-9.52,3.25-14.27,11.02c-0.85,1.39-4.23,7.21-3.94,13.82c0.4,9.18,7.68,14.77,14.02,16.38
		c12.87,3.27,17.45-10.96,38.84-13.44c4.16-0.48,14.2-1.13,20.58-7.74c1.4-1.45,2.15-2.7,2.32-3.97c0.39-2.93-2.75-5.14-9.05-9.57
		c-1.09-0.77-2.28-1.56-3.92-2.32c0,0-2.27-1.06-5.02-1.69c-12.45-2.84-23.64,0.63-23.64,0.63c-8.16,2.53-13.98,4.34-17.36,9.74
		c-7.74,12.37,1.6,36.87,12.68,36.74c5.63-0.07,7.7-6.44,23.24-13.8c4.54-2.15,6.57-2.65,7.53-4.82
		c2.54-5.77-4.54-18.77-15.53-17.81c-8.39,0.73-17.6,9.47-18.58,16.88c-1.17,8.9,9.85,13.65,21.58,18.7
		c8.41,3.63,12.02,2.96,14.48,2.04c8.53-3.18,13.16-13.07,13.82-14.5c1.02-2.18,3.3-7.05,1.82-9.74c-1.09-1.98-3.72-1.9-4.8-1.85
		c-8.14,0.36-12.2,0.54-31.16,2.54c-16.89,1.78-32.35-12.23-30.4-20.06c1.91-7.69,21.5-13.01,35.08-12.48
		c2.71,0.1,16.15,0.87,27.28,11.63c4.53,4.38,9.08,8.79,9.54,17.28c0.44,8.18-2.95,19.68-7.73,21.56c-8.33,3.29-24-21.4-16.56-38.43
		c1.89-4.34,6.49-10.93,12.03-11.54c4.46-0.49,9.17,2.93,9.25,8.71c0.1,7.41-7.49,14.38-11.91,14.2c-2.62-0.11-3.75-2.7-6.61-8.95
		c-9.42-20.57-11.16-23.06-13.99-24.14c-6.08-2.32-13.78,3.23-16.88,5.45c-17.33,12.47-20.94,38.38-21.31,41.36"/>
	<path class="st37" d="M634.67,414.3c2.56,3.82,6.68,8.51,12.7,9.64c6.85,1.3,9.16-4.79,17.28-5.32
		c11.66-0.76,18.48,10.27,23.49,7.18c3.58-2.21,0.42-8.05,4.3-12.09c6.63-6.92,23.65,1.98,25.86-1.86
		c0.85-1.47-0.44-4.88-9.54-13.29c-4.73-2.82-9.46-5.64-14.18-8.46c-3.29-2.21-8.44-4.9-14.68-4.77c-7.68,0.17-9.24,4.43-20.12,8.47
		c-13.18,4.9-20.09,2.06-24,7.66C633.16,405.18,633.6,410.14,634.67,414.3z"/>
	<g id="meatball">
		<path class="st38" d="M659.74,415.35c0,4.11-1.09,4.65-2.85,6.87c-1.76,3.69-4.19,7.06-6.87,2.85c-2.68,2.81-5.11-2.13-6.87-2.85
			c-1.76-4.15-2.85-0.02-2.85-6.87c0,4.44,1.09-3.25,2.85-6.87c1.76,1.47,4.19-5.65,6.87-2.85c2.68,4.38,5.11-2.99,6.87,2.85
			C658.65,405.8,659.74,415.5,659.74,415.35z"/>
		<g>
			<g>
				<path class="st39" d="M642.25,419.56c0.15,0.07,0.29,0.15,0.43,0.23c0.09,0.06,0.18,0.11,0.27,0.18c0.17,0.13,0.18,0.13,0.01,0
					c-0.17-0.13-0.17-0.13,0,0.01c0.06,0.05,0.12,0.11,0.18,0.17c0.14,0.13,0.26,0.28,0.38,0.42c-0.24-0.59-0.49-1.18-0.73-1.77
					c0,0.16,0,0.31,0,0.47c0,0.86,0.47,1.75,1.24,2.16c0.07,0.04,0.7,0.39,0.68,0.42c0,0-0.47-0.4-0.07-0.04
					c0.21,0.19,0.43,0.41,0.68,0.56c0.3,0.17,0.67,0.28,1,0.39c0.45,0.16,0.9,0.31,1.35,0.47c1.18,0.41,2.5-0.37,2.95-1.45
					c0.47-1.11,0.08-2.52-1.02-3.12c-1.36-0.75-2.83-1.34-4.34-1.71c-1.81-0.45-3.63,1.2-3.08,3.08c0.21,0.7,0.41,1.4,0.62,2.09
					c0.07,0.25,0.14,0.5,0.22,0.75c0.46,1.44,1.75,2.55,3.33,2.47c0.07,0,1.17-0.14,0.39-0.06c-0.55,0.06-0.33,0.03-0.24,0.03
					c0.05,0,0.11-0.01,0.16-0.01c0.22-0.01,0.44-0.03,0.66-0.04c0.22-0.01,0.44-0.03,0.65-0.04c0.13-0.01,0.35,0.02,0.47-0.03
					c-0.04,0.02-0.87-0.22-0.48-0.03c0.07,0.04,0.16,0.07,0.24,0.1c0.05,0.02,0.1,0.02,0.14,0.03c-0.26-0.14-0.51-0.29-0.77-0.43
					c0.17,0.13,0.34,0.26,0.51,0.39c0.19,0.11,0.43,0.19,0.64,0.27c0.29,0.11,0.58,0.2,0.87,0.3c0.78,0.27,1.55,0.54,2.33,0.81
					c0.74,0.26,1.59,0.01,2.18-0.45c0.66-0.51,0.9-1.15,0.99-1.96c0.07-0.73,0.17-1.47,0.22-2.2c0.12-1.62-1.26-2.37-2.41-3.13
					c0.3,0.3,0.6,0.6,0.9,0.9c-0.45-0.69-0.91-1.38-1.37-2.07c-0.17-0.25-0.33-0.51-0.51-0.76c-0.85-1.22-2.49-1.67-3.92-1.6
					c-1.3,0.06-2.56,1.1-2.5,2.5c0.07,1.48,1.1,2.35,2.5,2.5c1.8,0.2,3.61,0.4,5.41,0.6c0.6,0.07,1.36-0.33,1.77-0.73
					c0.43-0.43,0.76-1.14,0.73-1.77c-0.07-1.48-1.1-2.35-2.5-2.5c-1.8-0.2-3.61-0.4-5.41-0.6c0,1.67,0,3.33,0,5
					c0.11-0.01,0.22,0,0.33-0.01c0.45-0.02-0.37-0.11-0.09-0.02c0.1,0.03,0.22,0.07,0.32,0.08c0.29,0.04-0.53-0.26-0.06-0.03
					c-0.3-0.3-0.6-0.6-0.9-0.9c0.48,0.72,0.95,1.43,1.43,2.15c0.4,0.6,0.77,1.17,1.38,1.6c0.18,0.12,0.36,0.24,0.54,0.36
					c0.11,0.07,0.22,0.14,0.33,0.21c0.24,0.16,0.2,0.26-0.22-0.16c-0.24-0.59-0.49-1.18-0.73-1.77c-0.08,0.78-0.16,1.57-0.24,2.35
					c1.05-0.8,2.11-1.61,3.16-2.41c-1.08-0.38-2.16-0.75-3.24-1.13c0.37,0.21,0.74,0.43,1.1,0.64c-0.83-0.79-2.01-1.18-3.14-1.11
					c-0.37,0.02-0.73,0.05-1.1,0.07c-0.12,0.01-0.24,0.01-0.35,0.02c-0.02,0-0.04,0-0.05,0c-0.81,0.1-0.89,0.12-0.24,0.04
					c0.31-0.02,0.58,0.07,0.82,0.28c0.32,0.19,0.77,0.48,0.8,0.91c0-0.02-0.01-0.03-0.01-0.05c-0.02-0.09-0.05-0.18-0.08-0.27
					c-0.1-0.32-0.19-0.65-0.29-0.97c-0.15-0.52-0.31-1.04-0.46-1.56c-1.03,1.03-2.05,2.05-3.08,3.08c0.62,0.16,1.24,0.34,1.84,0.57
					c0.08,0.03,0.54,0.23,0.19,0.07c-0.36-0.16,0.11,0.05,0.18,0.09c0.32,0.15,0.63,0.31,0.94,0.48c0.64-1.52,1.28-3.05,1.93-4.57
					c-0.58-0.2-1.17-0.41-1.75-0.61c0.37,0.21,0.74,0.43,1.1,0.64c-0.54-0.51-1.14-0.98-1.8-1.33c0.41,0.72,0.83,1.44,1.24,2.16
					c0-0.14,0-0.28,0-0.42c-0.02-0.85-0.39-1.46-0.94-2.06c-0.58-0.62-1.3-1.17-2.06-1.55c-1.17-0.58-2.76-0.35-3.42,0.9
					C640.75,417.28,641,418.94,642.25,419.56L642.25,419.56z"/>
			</g>
		</g>
	</g>
	<g id="meatball_1_">
		<path class="st38" d="M699.83,388.44c2.72,3.08,2.26,4.21,2.41,7.04c1.12,3.93,1.53,8.07-3.27,6.68
			c-0.16,3.88-5.24,1.79-7.04,2.41c-4.06-1.95-2.15,1.87-6.68-3.27c2.94,3.33-1.34-3.16-2.41-7.04c2.29-0.06-0.6-7.01,3.27-6.68
			c4.91,1.51,1.86-5.62,7.04-2.41C692.7,382,699.93,388.55,699.83,388.44z"/>
		<g>
			<g>
				<path class="st39" d="M689.67,403.12c0.05-0.01,0.36-0.13,0.4-0.1c-0.09,0.01-0.17,0.02-0.26,0.03c0.1-0.01,0.21-0.02,0.31-0.02
					c0.14-0.01,0.28-0.01,0.41-0.01c0.13,0,0.62,0.06,0.06-0.02c-0.37-0.21-0.74-0.43-1.1-0.64c0.1,0.12,0.21,0.24,0.31,0.35
					c0.6,0.68,1.6,0.83,2.43,0.64c0.06-0.01,0.34-0.12,0.39-0.08c-0.07-0.04-0.46,0.03-0.07,0.02c0.42-0.01,0.86,0.03,1.27-0.09
					c0.16-0.04,0.31-0.13,0.46-0.19c0.42-0.17,0.84-0.34,1.26-0.51c0.63-0.26,1.14-0.54,1.49-1.15c0.31-0.54,0.45-1.33,0.25-1.93
					c-0.43-1.34-1.71-2.06-3.08-1.75c-1.52,0.35-2.99,0.92-4.37,1.63c-1.73,0.9-1.51,3.37,0,4.32c0.87,0.54,1.72,1.17,2.63,1.65
					c1.03,0.55,2.28,0.57,3.3-0.03c0.24-0.14,0.47-0.32,0.66-0.51c0.17-0.16,0.32-0.35,0.44-0.55c-0.1,0.13-0.21,0.26-0.31,0.39
					c0,0,0.17-0.17,0.17-0.17c0.41-0.41,0.82-0.82,1.24-1.24c-0.37,0.21-0.74,0.43-1.1,0.64c0.23-0.08,0.92-0.27,1.02-0.4
					c-0.98,0.23-1.01,0.27-0.09,0.12c0,0,0.01,0,0.01,0c0.03-0.01,0.06-0.03,0.09-0.04c0.35-0.13,0.68-0.28,1.02-0.42
					c0.68-0.28,1.36-0.56,2.05-0.84c0.75-0.31,1.3-0.68,1.62-1.45c0.29-0.68,0.33-1.59-0.13-2.23c-0.43-0.61-0.87-1.21-1.3-1.82
					c-0.28-0.39-0.54-0.75-0.97-1c-0.72-0.42-1.42-0.36-2.2-0.25c-0.39,0.05-0.77,0.11-1.16,0.16c0.44,0,0.89,0,1.33,0
					c-0.82-0.22-1.65-0.44-2.47-0.66c-0.27-0.07-0.54-0.15-0.81-0.22c-1.46-0.33-2.98,0.56-3.99,1.54c-0.9,0.87-0.94,2.32-0.2,3.28
					c0.71,0.91,2.2,1.36,3.23,0.64c1.49-1.04,2.97-2.09,4.46-3.13c1.07-0.75,1.67-2.22,0.9-3.42c-0.68-1.06-2.28-1.7-3.42-0.9
					c-1.49,1.04-2.97,2.09-4.46,3.13c1.01,1.31,2.02,2.62,3.03,3.93c0.2-0.18,0.17-0.17-0.09,0.03c0.1-0.07,0.2-0.14,0.31-0.2
					c0.25-0.13,0.21-0.12-0.1,0.02c0.11-0.04,0.23-0.08,0.35-0.11c-0.44,0-0.89,0-1.33,0c0.82,0.22,1.64,0.44,2.46,0.66
					c0.13,0.03,0.26,0.07,0.39,0.1c0.63,0.17,1.14,0.2,1.79,0.11c0.22-0.03,0.44-0.06,0.66-0.09c0.13-0.02,0.27-0.04,0.4-0.06
					c0.31-0.04,0.22,0.11-0.32,0.07c-0.72-0.41-1.44-0.83-2.16-1.24c0.46,0.64,0.92,1.28,1.38,1.92c0.5-1.22,1-2.45,1.49-3.67
					c-0.6,0.24-1.2,0.49-1.79,0.73c-0.36,0.15-0.73,0.3-1.09,0.45c-0.05,0.02-0.22,0.06-0.26,0.11c0,0,1-0.15,0.13-0.03
					c-0.17,0.02-0.34,0.04-0.51,0.09c-0.2,0.08-0.4,0.17-0.6,0.25c0.14-0.05,0.27-0.1,0.41-0.15c-0.62,0.19-1.18,0.48-1.64,0.93
					c-0.31,0.3-0.62,0.62-0.93,0.93c-0.1,0.1-0.2,0.19-0.3,0.3c-0.09,0.1-0.09,0.11-0.23,0.29c-0.57,0.73,0.34-0.32,0.42-0.36
					c0.34-0.2,0.89-0.27,1.27-0.17c0.14,0.03,0.49,0.25,0.25,0.06c-0.12-0.09-0.27-0.17-0.4-0.25c-0.67-0.42-1.34-0.84-2.01-1.26
					c0,1.44,0,2.88,0,4.32c0.27-0.14,0.55-0.26,0.82-0.4c0.27-0.14-0.39,0.14,0.05-0.02c0.16-0.06,0.31-0.12,0.47-0.18
					c0.6-0.22,1.22-0.39,1.84-0.53c-0.44-1.61-0.89-3.21-1.33-4.82c-0.42,0.17-0.84,0.34-1.26,0.51c-0.14,0.06-0.74,0.24-0.23,0.14
					c0.5-0.1,0.05-0.05-0.07-0.04c-0.13,0.01-0.27,0.02-0.4,0.03c-0.45,0.05-0.91,0.11-1.36,0.21c0.81,0.21,1.62,0.43,2.43,0.64
					c-0.09-0.1-0.17-0.21-0.27-0.31c-0.58-0.57-1.23-0.73-2.01-0.81c-0.91-0.09-1.83,0.01-2.71,0.24c-1.27,0.33-2.16,1.8-1.75,3.08
					C687.02,402.68,688.32,403.48,689.67,403.12L689.67,403.12z"/>
			</g>
		</g>
	</g>
	<g id="meatball_2_">
		<path class="st38" d="M672.63,389.17c0.24,3.25-0.64,3.74-1.99,5.6c-1.26,3.03-3.1,5.83-5.59,2.67c-2.08,2.38-4.4-1.37-5.91-1.83
			c-1.71-3.17-2.38,0.16-2.78-5.26c0.25,3.51,0.72-2.64,1.99-5.6c1.56,1.05,3.18-4.72,5.59-2.67c2.5,3.3,4.11-2.67,5.91,1.83
			C671.17,381.69,672.64,389.29,672.63,389.17z"/>
		<g>
			<g>
				<path class="st39" d="M658.64,396.15c0.14,0.04,0.27,0.09,0.41,0.14c-0.2-0.08-0.4-0.17-0.6-0.25c0.26,0.11,0.49,0.25,0.72,0.41
					c-0.17-0.13-0.34-0.26-0.51-0.39c0.03,0.02,0.05,0.04,0.08,0.06c-0.24-0.59-0.49-1.18-0.73-1.77c0.01,0.08,0.01,0.16,0.02,0.24
					c0.08,1.16,0.73,2.04,1.84,2.41c0.11,0.04,0.21,0.07,0.31,0.11c-0.2-0.08-0.4-0.17-0.6-0.25c0.52,0.22,0.98,0.51,1.53,0.62
					c0.27,0.05,0.53,0.1,0.8,0.15c0.67,0.13,1.32,0.1,1.93-0.25c0.52-0.3,1.01-0.9,1.15-1.49c0.32-1.38-0.42-2.63-1.75-3.08
					c-1.03-0.35-2.09-0.52-3.16-0.65c-0.85-0.1-1.75,0.55-2.16,1.24c-0.48,0.82-0.39,1.69,0,2.52c0.17,0.37,0.35,0.74,0.52,1.1
					c0.07,0.14,0.13,0.28,0.21,0.41c0.7,1.16,2.18,1.63,3.45,1.28c-0.22,0.03-0.44,0.06-0.66,0.09c0.43-0.05,0.87-0.1,1.3-0.16
					c-0.22-0.03-0.44-0.06-0.66-0.09c0.34,0.08,0.68,0.14,1.03,0.16c-0.22-0.03-0.44-0.06-0.66-0.09c0.06,0.01,0.11,0.02,0.16,0.05
					c-0.2-0.08-0.4-0.17-0.6-0.25c0.51,0.32,1.1,0.38,1.68,0.49c0.38,0.07,0.76,0.15,1.14,0.22c0.81,0.15,1.52,0.06,2.18-0.45
					c0.64-0.5,0.94-1.16,0.99-1.96c0.02-0.39,0.06-0.79,0.07-1.18c0.02-0.91-0.54-1.78-1.32-2.22c-0.19-0.11-0.51-0.21-0.74-0.31
					c-0.19-0.08-0.38-0.16-0.57-0.24c0.37,0.21,0.74,0.43,1.1,0.64c-0.33-0.33-0.66-0.66-0.99-0.99c-0.11-0.11-0.22-0.23-0.34-0.34
					c-0.74-0.71-1.93-0.94-2.93-0.83c-0.68,0.07-1.27,0.23-1.77,0.73c-0.43,0.43-0.76,1.15-0.73,1.77c0.06,1.37,1.1,2.48,2.5,2.5
					c1.19,0.01,2.37,0.03,3.56,0.04c1.31,0.02,2.56-1.16,2.5-2.5c-0.06-1.37-1.1-2.48-2.5-2.5c-1.19-0.01-2.37-0.03-3.56-0.04
					c0,1.67,0,3.33,0,5c0.24-0.03,0.47-0.03,0.71,0c-0.22-0.03-0.44-0.06-0.66-0.09c0.15,0.02,0.3,0.06,0.45,0.1
					c-0.37-0.21-0.74-0.43-1.1-0.64c0.35,0.35,0.69,0.69,1.04,1.04c0.04,0.04,0.08,0.08,0.13,0.13c0.21,0.21,0.39,0.39,0.67,0.56
					c0.14,0.08,0.43,0.18,0.65,0.27c0.22,0.09,0.45,0.19,0.67,0.28c-0.2-0.08-0.4-0.17-0.6-0.25c0.03,0.02,0.05,0.04,0.08,0.05
					c-0.41-0.72-0.83-1.44-1.24-2.16c-0.02,0.4-0.05,0.8-0.07,1.19c1.05-0.8,2.11-1.61,3.16-2.41c-0.72-0.14-1.44-0.27-2.16-0.41
					c0.2,0.08,0.4,0.17,0.6,0.25c-0.49-0.3-1.01-0.4-1.58-0.44c0.22,0.03,0.44,0.06,0.66,0.09c-0.3-0.07-0.65-0.18-0.95-0.15
					c-0.15,0.01-0.3,0.04-0.45,0.05c-0.51,0.06-1.1,0.08-1.59,0.21c0.22-0.03,0.44-0.06,0.66-0.09c-0.06,0.01-0.12,0.01-0.17,0.01
					c0.22,0.03,0.44,0.06,0.66,0.09c-0.06-0.01-0.11-0.02-0.17-0.04c0.2,0.08,0.4,0.17,0.6,0.25c-0.05-0.02-0.1-0.04-0.14-0.08
					c0.17,0.13,0.34,0.26,0.51,0.39c-0.02-0.02-0.04-0.03-0.06-0.05c0.13,0.17,0.26,0.34,0.39,0.51c-0.16-0.21-0.26-0.52-0.37-0.76
					c-0.12-0.25-0.24-0.5-0.35-0.75c-0.72,1.25-1.44,2.51-2.16,3.76c0.08,0.01,0.16,0.02,0.25,0.03c-0.22-0.03-0.44-0.06-0.66-0.09
					c0.77,0.11,1.52,0.28,2.25,0.53c0.44-1.61,0.89-3.21,1.33-4.82c-0.39-0.07-0.78-0.15-1.17-0.22c0.2,0.08,0.4,0.17,0.6,0.25
					c-0.45-0.29-0.97-0.49-1.48-0.66c0.61,0.8,1.22,1.61,1.84,2.41c-0.01-0.08-0.01-0.16-0.02-0.24c-0.06-0.66-0.24-1.29-0.73-1.77
					c-0.2-0.19-0.44-0.36-0.67-0.51c-0.49-0.34-1.07-0.58-1.65-0.75c-1.25-0.38-2.78,0.45-3.08,1.75
					C656.59,394.42,657.3,395.74,658.64,396.15L658.64,396.15z"/>
			</g>
		</g>
	</g>
	<g id="meatball_3_">
		<path class="st38" d="M694.33,416.88c1.27,1.02,1.74,2.43,1.94,3.09c0.31,1.06,0.21,2.03,0.28,3.48c1.03,3.68,1.39,7.54-3.1,6.27
			c-0.17,3.63-4.92,1.7-6.61,2.29c-0.64,0.05-1.54,0.02-2.12-0.55c-0.56-0.56-0.32-1.13-0.84-1.77c-0.92-1.13-3.13-1.12-3.28-0.71
			c-0.11,0.29,0.72,0.99,0.93,0.85c0.27-0.18-2.37-4.56-3.15-7.43c0.25-0.31,0.66-0.87,0.95-1.65c0.75-2.02,0.02-3.64,0.93-4.36
			c0.19-0.15,0.54-0.33,1.22-0.27c4.6,1.39,1.77-5.27,6.61-2.29c0.55,0.38,1.44,0.96,2.62,1.49
			C692.66,416.22,693.3,416.04,694.33,416.88z"/>
		<g>
			<g>
				<path class="st39" d="M681.6,428.71c0.17,0.04,0.33,0.08,0.5,0.13c0.07,0.02,0.13,0.05,0.2,0.07c0.18,0.07,0.09,0.03-0.25-0.11
					c0.04,0.08,0.41,0.21,0.5,0.26c0.08,0.04,0.15,0.08,0.22,0.13c-0.34-0.31-0.45-0.4-0.32-0.26c0.45,0.62,1.11,0.94,1.83,1.17
					c0.59,0.19-0.4-0.22,0.07,0.01c0.29,0.14,0.61,0.33,0.91,0.41c0.31,0.09,0.61,0.09,0.93,0.1c0.32,0.01,0.63,0.02,0.95,0.03
					c1.24,0.04,2.3-0.98,2.46-2.17c0.16-1.19-0.58-2.44-1.79-2.74c-1.09-0.27-2.26-0.47-3.38-0.32c-0.44,0.06-0.87,0.11-1.26,0.34
					c-0.47,0.28-0.81,0.7-1.02,1.2c-0.37,0.88-0.22,2.06,0.52,2.73c0.69,0.63,1.38,1.26,2.07,1.88c0.26,0.24,0.51,0.47,0.78,0.71
					c0.62,0.56,1.26,0.99,2.1,1.11c1.32,0.18,2.69-0.58,3.01-1.95c-0.21,0.37-0.43,0.74-0.64,1.1c0.21-0.26,0.43-0.53,0.64-0.79
					c-0.59,0.24-1.18,0.49-1.77,0.73c0.25,0.03,0.87,0.12,0.97-0.06c-0.51-0.06-1.03-0.11-1.54-0.17c0.29,0.18,0.6,0.28,0.93,0.3
					c0.25,0.03,0.23,0.04,0.35,0.05c0.23,0.01,0.46,0.01,0.69,0.02c0.51,0.01,1.02,0.03,1.52,0.04c0.99,0.03,1.91-0.65,2.28-1.54
					c0.42-0.99,0.14-1.93-0.52-2.73c-0.38-0.47-0.77-0.94-1.15-1.41c-0.23-0.28-0.46-0.56-0.69-0.85c-0.38-0.46-0.88-0.72-1.44-0.93
					c-0.31-0.12-0.63-0.22-0.95-0.33c-0.09-0.03-0.23-0.08,0.18,0.06c0.42,0.14,0.2,0.07,0.09-0.02c-0.05-0.04-0.1-0.07-0.15-0.11
					c-0.07-0.05-0.14-0.1-0.21-0.14c-0.64-0.44-1.28-0.89-1.93-1.33c-0.22-0.15-0.43-0.33-0.67-0.46c-1.23-0.71-3.07-0.46-4.03,0.61
					c-0.84,0.93-0.98,2.27-0.2,3.28c0.8,1.04,2.08,1.18,3.23,0.64c0.86-0.4,1.72-0.8,2.58-1.2c1.19-0.55,1.58-2.36,0.9-3.42
					c-0.79-1.22-2.15-1.49-3.42-0.9c-0.86,0.4-1.72,0.8-2.58,1.2c1.01,1.31,2.02,2.62,3.03,3.93c0.15-0.17,0.24-0.17-0.35,0.17
					c-0.35,0.21-0.47,0.27-0.85,0.3c0.22-0.01,0.46,0.1-0.36-0.15c-0.16-0.05-0.32-0.1-0.49-0.15c0,0,0.01,0,0.01,0.01
					c0.04,0.05,0.14,0.09,0.19,0.13c0.25,0.17,0.5,0.35,0.76,0.52c0.57,0.39,1.14,0.79,1.71,1.18c0.63,0.43,1.3,0.71,2.03,0.94
					c0.57,0.18-0.8-0.54-0.78-0.49c0.03,0.07,0.1,0.13,0.15,0.18c0.21,0.26,0.42,0.52,0.63,0.77c0.4,0.49,0.81,0.99,1.21,1.48
					c0.59-1.42,1.18-2.85,1.77-4.27c-0.74-0.02-1.49-0.04-2.23-0.06c0.42,0.11,0.84,0.23,1.26,0.34c-0.49-0.25-0.94-0.4-1.49-0.44
					c-0.3-0.02-1.21,0.14-0.47,0.05c0.5-0.06,0.29-0.03,0.16-0.05c-0.69-0.12-1.52,0.28-1.97,0.78c-0.14,0.16-0.27,0.33-0.41,0.5
					c-0.06,0.07-0.11,0.14-0.17,0.21c-0.07,0.09-0.14,0.17-0.21,0.27c-0.15,0.16-0.26,0.34-0.32,0.55c-0.19,0.46-0.17,0.4,0.07-0.18
					c0.3-0.3,0.6-0.6,0.9-0.9c0.7-0.01,1.41-0.03,2.11-0.04c-0.04-0.02-0.07-0.04-0.11-0.06c0.1,0.06,0.41,0.35,0.15,0.11
					c-0.01-0.01-0.02-0.02-0.04-0.03c-0.08-0.08-0.17-0.15-0.25-0.23c-0.33-0.3-0.67-0.61-1-0.91c-0.52-0.47-1.04-0.95-1.57-1.42
					c-0.59,1.42-1.18,2.85-1.77,4.27c0.39-0.05,0.79-0.06,1.19-0.04c0.11,0.01,0.22,0.02,0.32,0.03c-0.39-0.05-0.44-0.06-0.16-0.01
					c0.23,0.05,0.47,0.1,0.71,0.16c0.22-1.64,0.44-3.27,0.66-4.91c-0.4-0.01-0.81-0.02-1.21-0.04c0.42,0.11,0.84,0.23,1.26,0.34
					c-0.61-0.31-1.25-0.61-1.93-0.77c0.37,0.21,0.74,0.43,1.1,0.64c-0.87-0.99-2.14-1.67-3.44-1.94c-1.28-0.27-2.76,0.37-3.08,1.75
					C679.56,426.88,680.23,428.42,681.6,428.71L681.6,428.71z"/>
			</g>
		</g>
	</g>
</g>
</svg>
